<svg xmlns="http://www.w3.org/2000/svg" xmlns:xlink="http://www.w3.org/1999/xlink" width="500" zoomAndPan="magnify" viewBox="0 0 375 74.999997" height="100" preserveAspectRatio="xMidYMid meet" version="1.2"><defs><clipPath id="fd7e74c33f"><path d="M 13.136719 11 L 67 11 L 67 64 L 13.136719 64 Z M 13.136719 11 "/></clipPath></defs><g id="bb9e27bbb4"><rect x="0" width="375" y="0" height="74.999997" style="fill:#ffffff;fill-opacity:1;stroke:none;"/><rect x="0" width="375" y="0" height="74.999997" style="fill:#ffffff;fill-opacity:1;stroke:none;"/><g clip-rule="nonzero" clip-path="url(#fd7e74c33f)"><path style=" stroke:none;fill-rule:evenodd;fill:#363636;fill-opacity:1;" d="M 18.355469 11.71875 C 17.382812 11.96875 16.566406 12.460938 15.746094 13.28125 C 14.902344 14.125 14.539062 14.71875 14.203125 15.804688 L 13.988281 16.480469 L 13.988281 58.871094 L 14.203125 59.542969 C 14.539062 60.632812 14.902344 61.226562 15.746094 62.066406 C 16.585938 62.90625 17.179688 63.269531 18.265625 63.609375 L 18.941406 63.820312 L 61.332031 63.820312 L 62.003906 63.609375 C 63.09375 63.269531 63.6875 62.90625 64.527344 62.066406 C 65.367188 61.226562 65.730469 60.632812 66.070312 59.542969 L 66.28125 58.871094 L 66.28125 16.480469 L 66.070312 15.804688 C 65.730469 14.71875 65.367188 14.125 64.527344 13.28125 C 63.691406 12.445312 62.878906 11.964844 61.875 11.710938 C 61.085938 11.511719 19.121094 11.515625 18.355469 11.71875 M 60.960938 16.851562 L 61.195312 17.089844 L 61.195312 26.695312 L 19.074219 26.695312 L 19.074219 17.089844 L 19.550781 16.613281 L 60.71875 16.613281 L 60.960938 16.851562 M 29.15625 45.324219 L 29.15625 58.824219 L 24.621094 58.824219 C 22.128906 58.824219 19.964844 58.796875 19.808594 58.769531 C 19.652344 58.738281 19.425781 58.609375 19.300781 58.484375 L 19.074219 58.257812 L 19.074219 31.824219 L 29.15625 31.824219 L 29.15625 45.324219 M 61.195312 45.042969 L 61.195312 58.257812 L 60.96875 58.484375 C 60.84375 58.609375 60.617188 58.738281 60.464844 58.769531 C 60.308594 58.796875 54.359375 58.824219 47.234375 58.824219 L 34.285156 58.824219 L 34.285156 31.824219 L 61.195312 31.824219 L 61.195312 45.042969 "/></g><g style="fill:#363636;fill-opacity:1;"><g transform="translate(74.521147, 46.904113)"><path style="stroke:none" d=""/></g></g><g style="fill:#363636;fill-opacity:1;"><g transform="translate(78.528959, 46.904113)"><path style="stroke:none" d="M 9.8125 -13.265625 L 9.8125 -10.6875 L 4.40625 -10.6875 L 4.40625 -7.890625 L 8.453125 -7.890625 L 8.453125 -5.375 L 4.40625 -5.375 L 4.40625 0 L 1.171875 0 L 1.171875 -13.265625 Z M 9.8125 -13.265625 "/></g></g><g style="fill:#363636;fill-opacity:1;"><g transform="translate(88.862126, 46.904113)"><path style="stroke:none" d="M 11.59375 -10.546875 L 11.59375 0 L 8.359375 0 L 8.359375 -1.4375 C 8.023438 -0.96875 7.578125 -0.59375 7.015625 -0.3125 C 6.460938 -0.03125 5.84375 0.109375 5.15625 0.109375 C 4.351562 0.109375 3.640625 -0.0664062 3.015625 -0.421875 C 2.398438 -0.785156 1.921875 -1.304688 1.578125 -1.984375 C 1.242188 -2.660156 1.078125 -3.460938 1.078125 -4.390625 L 1.078125 -10.546875 L 4.296875 -10.546875 L 4.296875 -4.828125 C 4.296875 -4.117188 4.476562 -3.566406 4.84375 -3.171875 C 5.207031 -2.785156 5.695312 -2.59375 6.3125 -2.59375 C 6.945312 -2.59375 7.445312 -2.785156 7.8125 -3.171875 C 8.175781 -3.566406 8.359375 -4.117188 8.359375 -4.828125 L 8.359375 -10.546875 Z M 11.59375 -10.546875 "/></g></g><g style="fill:#363636;fill-opacity:1;"><g transform="translate(101.594398, 46.904113)"><path style="stroke:none" d="M 4.40625 -13.984375 L 4.40625 0 L 1.171875 0 L 1.171875 -13.984375 Z M 4.40625 -13.984375 "/></g></g><g style="fill:#363636;fill-opacity:1;"><g transform="translate(107.167132, 46.904113)"><path style="stroke:none" d="M 4.40625 -13.984375 L 4.40625 0 L 1.171875 0 L 1.171875 -13.984375 Z M 4.40625 -13.984375 "/></g></g><g style="fill:#363636;fill-opacity:1;"><g transform="translate(112.739867, 46.904113)"><path style="stroke:none" d="M 9.296875 -7.984375 L 9.296875 -5.296875 L 0.984375 -5.296875 L 0.984375 -7.984375 Z M 9.296875 -7.984375 "/></g></g><g style="fill:#363636;fill-opacity:1;"><g transform="translate(123.696428, 46.904113)"><path style="stroke:none" d="M 5.96875 0.125 C 5 0.125 4.128906 -0.03125 3.359375 -0.34375 C 2.597656 -0.65625 1.984375 -1.117188 1.515625 -1.734375 C 1.054688 -2.359375 0.816406 -3.101562 0.796875 -3.96875 L 4.234375 -3.96875 C 4.285156 -3.476562 4.457031 -3.101562 4.75 -2.84375 C 5.039062 -2.582031 5.414062 -2.453125 5.875 -2.453125 C 6.351562 -2.453125 6.734375 -2.5625 7.015625 -2.78125 C 7.296875 -3.007812 7.4375 -3.316406 7.4375 -3.703125 C 7.4375 -4.035156 7.320312 -4.304688 7.09375 -4.515625 C 6.875 -4.734375 6.601562 -4.910156 6.28125 -5.046875 C 5.957031 -5.179688 5.503906 -5.335938 4.921875 -5.515625 C 4.054688 -5.785156 3.351562 -6.050781 2.8125 -6.3125 C 2.269531 -6.582031 1.800781 -6.972656 1.40625 -7.484375 C 1.019531 -8.003906 0.828125 -8.679688 0.828125 -9.515625 C 0.828125 -10.742188 1.273438 -11.707031 2.171875 -12.40625 C 3.066406 -13.113281 4.234375 -13.46875 5.671875 -13.46875 C 7.128906 -13.46875 8.304688 -13.113281 9.203125 -12.40625 C 10.097656 -11.707031 10.578125 -10.734375 10.640625 -9.484375 L 7.140625 -9.484375 C 7.117188 -9.921875 6.960938 -10.257812 6.671875 -10.5 C 6.378906 -10.75 6.007812 -10.875 5.5625 -10.875 C 5.164062 -10.875 4.847656 -10.769531 4.609375 -10.5625 C 4.367188 -10.351562 4.25 -10.050781 4.25 -9.65625 C 4.25 -9.226562 4.453125 -8.894531 4.859375 -8.65625 C 5.265625 -8.414062 5.894531 -8.160156 6.75 -7.890625 C 7.601562 -7.597656 8.296875 -7.316406 8.828125 -7.046875 C 9.367188 -6.785156 9.832031 -6.398438 10.21875 -5.890625 C 10.613281 -5.390625 10.8125 -4.742188 10.8125 -3.953125 C 10.8125 -3.191406 10.617188 -2.503906 10.234375 -1.890625 C 9.847656 -1.273438 9.289062 -0.785156 8.5625 -0.421875 C 7.832031 -0.0546875 6.96875 0.125 5.96875 0.125 Z M 5.96875 0.125 "/></g></g><g style="fill:#363636;fill-opacity:1;"><g transform="translate(135.31416, 46.904113)"><path style="stroke:none" d="M 7.046875 -2.734375 L 7.046875 0 L 5.40625 0 C 4.238281 0 3.328125 -0.285156 2.671875 -0.859375 C 2.015625 -1.429688 1.6875 -2.367188 1.6875 -3.671875 L 1.6875 -7.859375 L 0.390625 -7.859375 L 0.390625 -10.546875 L 1.6875 -10.546875 L 1.6875 -13.125 L 4.921875 -13.125 L 4.921875 -10.546875 L 7.03125 -10.546875 L 7.03125 -7.859375 L 4.921875 -7.859375 L 4.921875 -3.625 C 4.921875 -3.3125 4.992188 -3.082031 5.140625 -2.9375 C 5.296875 -2.800781 5.550781 -2.734375 5.90625 -2.734375 Z M 7.046875 -2.734375 "/></g></g><g style="fill:#363636;fill-opacity:1;"><g transform="translate(142.983749, 46.904113)"><path style="stroke:none" d="M 0.53125 -5.296875 C 0.53125 -6.378906 0.734375 -7.328125 1.140625 -8.140625 C 1.554688 -8.960938 2.113281 -9.59375 2.8125 -10.03125 C 3.519531 -10.476562 4.3125 -10.703125 5.1875 -10.703125 C 5.925781 -10.703125 6.578125 -10.550781 7.140625 -10.25 C 7.703125 -9.945312 8.132812 -9.550781 8.4375 -9.0625 L 8.4375 -10.546875 L 11.671875 -10.546875 L 11.671875 0 L 8.4375 0 L 8.4375 -1.5 C 8.113281 -1 7.671875 -0.597656 7.109375 -0.296875 C 6.554688 0.00390625 5.90625 0.15625 5.15625 0.15625 C 4.300781 0.15625 3.519531 -0.0664062 2.8125 -0.515625 C 2.113281 -0.960938 1.554688 -1.597656 1.140625 -2.421875 C 0.734375 -3.253906 0.53125 -4.210938 0.53125 -5.296875 Z M 8.4375 -5.28125 C 8.4375 -6.082031 8.210938 -6.71875 7.765625 -7.1875 C 7.316406 -7.65625 6.769531 -7.890625 6.125 -7.890625 C 5.476562 -7.890625 4.929688 -7.65625 4.484375 -7.1875 C 4.035156 -6.726562 3.8125 -6.097656 3.8125 -5.296875 C 3.8125 -4.484375 4.035156 -3.84375 4.484375 -3.375 C 4.929688 -2.90625 5.476562 -2.671875 6.125 -2.671875 C 6.769531 -2.671875 7.316406 -2.898438 7.765625 -3.359375 C 8.210938 -3.828125 8.4375 -4.46875 8.4375 -5.28125 Z M 8.4375 -5.28125 "/></g></g><g style="fill:#363636;fill-opacity:1;"><g transform="translate(155.810481, 46.904113)"><path style="stroke:none" d="M 0.53125 -5.28125 C 0.53125 -6.375 0.753906 -7.328125 1.203125 -8.140625 C 1.648438 -8.960938 2.269531 -9.59375 3.0625 -10.03125 C 3.863281 -10.476562 4.785156 -10.703125 5.828125 -10.703125 C 7.148438 -10.703125 8.253906 -10.351562 9.140625 -9.65625 C 10.023438 -8.96875 10.609375 -7.992188 10.890625 -6.734375 L 7.453125 -6.734375 C 7.160156 -7.535156 6.597656 -7.9375 5.765625 -7.9375 C 5.171875 -7.9375 4.695312 -7.707031 4.34375 -7.25 C 3.988281 -6.789062 3.8125 -6.132812 3.8125 -5.28125 C 3.8125 -4.414062 3.988281 -3.753906 4.34375 -3.296875 C 4.695312 -2.835938 5.171875 -2.609375 5.765625 -2.609375 C 6.597656 -2.609375 7.160156 -3.007812 7.453125 -3.8125 L 10.890625 -3.8125 C 10.609375 -2.582031 10.019531 -1.613281 9.125 -0.90625 C 8.238281 -0.195312 7.140625 0.15625 5.828125 0.15625 C 4.785156 0.15625 3.863281 -0.0625 3.0625 -0.5 C 2.269531 -0.945312 1.648438 -1.578125 1.203125 -2.390625 C 0.753906 -3.210938 0.53125 -4.175781 0.53125 -5.28125 Z M 0.53125 -5.28125 "/></g></g><g style="fill:#363636;fill-opacity:1;"><g transform="translate(167.239305, 46.904113)"><path style="stroke:none" d="M 7.625 0 L 4.40625 -4.421875 L 4.40625 0 L 1.171875 0 L 1.171875 -13.984375 L 4.40625 -13.984375 L 4.40625 -6.265625 L 7.59375 -10.546875 L 11.59375 -10.546875 L 7.203125 -5.25 L 11.625 0 Z M 7.625 0 "/></g></g><g style="fill:#363636;fill-opacity:1;"><g transform="translate(178.913708, 46.904113)"><path style="stroke:none" d=""/></g></g><g style="fill:#363636;fill-opacity:1;"><g transform="translate(182.918522, 46.904113)"><path style="stroke:none" d="M 19.4375 -13.265625 L 15.96875 0 L 12.0625 0 L 9.9375 -8.734375 L 7.75 0 L 3.84375 0 L 0.46875 -13.265625 L 3.9375 -13.265625 L 5.84375 -3.609375 L 8.203125 -13.265625 L 11.765625 -13.265625 L 14.03125 -3.609375 L 15.953125 -13.265625 Z M 19.4375 -13.265625 "/></g></g><g style="fill:#363636;fill-opacity:1;"><g transform="translate(202.791449, 46.904113)"><path style="stroke:none" d="M 11.109375 -5.4375 C 11.109375 -5.132812 11.09375 -4.820312 11.0625 -4.5 L 3.75 -4.5 C 3.789062 -3.84375 4 -3.34375 4.375 -3 C 4.75 -2.65625 5.207031 -2.484375 5.75 -2.484375 C 6.550781 -2.484375 7.113281 -2.820312 7.4375 -3.5 L 10.875 -3.5 C 10.695312 -2.800781 10.375 -2.175781 9.90625 -1.625 C 9.445312 -1.070312 8.867188 -0.632812 8.171875 -0.3125 C 7.484375 0 6.710938 0.15625 5.859375 0.15625 C 4.828125 0.15625 3.90625 -0.0625 3.09375 -0.5 C 2.289062 -0.945312 1.660156 -1.578125 1.203125 -2.390625 C 0.753906 -3.210938 0.53125 -4.175781 0.53125 -5.28125 C 0.53125 -6.375 0.753906 -7.328125 1.203125 -8.140625 C 1.648438 -8.960938 2.273438 -9.59375 3.078125 -10.03125 C 3.890625 -10.476562 4.816406 -10.703125 5.859375 -10.703125 C 6.878906 -10.703125 7.785156 -10.488281 8.578125 -10.0625 C 9.378906 -9.632812 10 -9.019531 10.4375 -8.21875 C 10.882812 -7.425781 11.109375 -6.5 11.109375 -5.4375 Z M 7.8125 -6.296875 C 7.8125 -6.847656 7.617188 -7.285156 7.234375 -7.609375 C 6.859375 -7.941406 6.390625 -8.109375 5.828125 -8.109375 C 5.285156 -8.109375 4.828125 -7.953125 4.453125 -7.640625 C 4.078125 -7.328125 3.847656 -6.878906 3.765625 -6.296875 Z M 7.8125 -6.296875 "/></g></g><g style="fill:#363636;fill-opacity:1;"><g transform="translate(214.428075, 46.904113)"><path style="stroke:none" d="M 4.40625 -9.0625 C 4.707031 -9.550781 5.140625 -9.945312 5.703125 -10.25 C 6.273438 -10.550781 6.925781 -10.703125 7.65625 -10.703125 C 8.53125 -10.703125 9.316406 -10.476562 10.015625 -10.03125 C 10.722656 -9.59375 11.28125 -8.960938 11.6875 -8.140625 C 12.101562 -7.328125 12.3125 -6.378906 12.3125 -5.296875 C 12.3125 -4.210938 12.101562 -3.253906 11.6875 -2.421875 C 11.28125 -1.597656 10.722656 -0.960938 10.015625 -0.515625 C 9.316406 -0.0664062 8.53125 0.15625 7.65625 0.15625 C 6.914062 0.15625 6.265625 0.0078125 5.703125 -0.28125 C 5.148438 -0.582031 4.71875 -0.976562 4.40625 -1.46875 L 4.40625 0 L 1.171875 0 L 1.171875 -13.984375 L 4.40625 -13.984375 Z M 9.015625 -5.296875 C 9.015625 -6.097656 8.789062 -6.726562 8.34375 -7.1875 C 7.894531 -7.65625 7.34375 -7.890625 6.6875 -7.890625 C 6.050781 -7.890625 5.507812 -7.65625 5.0625 -7.1875 C 4.613281 -6.71875 4.390625 -6.082031 4.390625 -5.28125 C 4.390625 -4.46875 4.613281 -3.828125 5.0625 -3.359375 C 5.507812 -2.898438 6.050781 -2.671875 6.6875 -2.671875 C 7.332031 -2.671875 7.878906 -2.90625 8.328125 -3.375 C 8.785156 -3.84375 9.015625 -4.484375 9.015625 -5.296875 Z M 9.015625 -5.296875 "/></g></g><g style="fill:#363636;fill-opacity:1;"><g transform="translate(227.254807, 46.904113)"><path style="stroke:none" d=""/></g></g><g style="fill:#363636;fill-opacity:1;"><g transform="translate(231.25962, 46.904113)"><path style="stroke:none" d="M 6.140625 -13.265625 C 7.546875 -13.265625 8.769531 -12.988281 9.8125 -12.4375 C 10.851562 -11.882812 11.660156 -11.109375 12.234375 -10.109375 C 12.816406 -9.109375 13.109375 -7.953125 13.109375 -6.640625 C 13.109375 -5.335938 12.816406 -4.179688 12.234375 -3.171875 C 11.660156 -2.160156 10.847656 -1.378906 9.796875 -0.828125 C 8.742188 -0.273438 7.523438 0 6.140625 0 L 1.171875 0 L 1.171875 -13.265625 Z M 5.9375 -2.796875 C 7.15625 -2.796875 8.101562 -3.128906 8.78125 -3.796875 C 9.46875 -4.460938 9.8125 -5.410156 9.8125 -6.640625 C 9.8125 -7.859375 9.46875 -8.804688 8.78125 -9.484375 C 8.101562 -10.171875 7.15625 -10.515625 5.9375 -10.515625 L 4.40625 -10.515625 L 4.40625 -2.796875 Z M 5.9375 -2.796875 "/></g></g><g style="fill:#363636;fill-opacity:1;"><g transform="translate(244.993102, 46.904113)"><path style="stroke:none" d="M 11.109375 -5.4375 C 11.109375 -5.132812 11.09375 -4.820312 11.0625 -4.5 L 3.75 -4.5 C 3.789062 -3.84375 4 -3.34375 4.375 -3 C 4.75 -2.65625 5.207031 -2.484375 5.75 -2.484375 C 6.550781 -2.484375 7.113281 -2.820312 7.4375 -3.5 L 10.875 -3.5 C 10.695312 -2.800781 10.375 -2.175781 9.90625 -1.625 C 9.445312 -1.070312 8.867188 -0.632812 8.171875 -0.3125 C 7.484375 0 6.710938 0.15625 5.859375 0.15625 C 4.828125 0.15625 3.90625 -0.0625 3.09375 -0.5 C 2.289062 -0.945312 1.660156 -1.578125 1.203125 -2.390625 C 0.753906 -3.210938 0.53125 -4.175781 0.53125 -5.28125 C 0.53125 -6.375 0.753906 -7.328125 1.203125 -8.140625 C 1.648438 -8.960938 2.273438 -9.59375 3.078125 -10.03125 C 3.890625 -10.476562 4.816406 -10.703125 5.859375 -10.703125 C 6.878906 -10.703125 7.785156 -10.488281 8.578125 -10.0625 C 9.378906 -9.632812 10 -9.019531 10.4375 -8.21875 C 10.882812 -7.425781 11.109375 -6.5 11.109375 -5.4375 Z M 7.8125 -6.296875 C 7.8125 -6.847656 7.617188 -7.285156 7.234375 -7.609375 C 6.859375 -7.941406 6.390625 -8.109375 5.828125 -8.109375 C 5.285156 -8.109375 4.828125 -7.953125 4.453125 -7.640625 C 4.078125 -7.328125 3.847656 -6.878906 3.765625 -6.296875 Z M 7.8125 -6.296875 "/></g></g><g style="fill:#363636;fill-opacity:1;"><g transform="translate(256.629728, 46.904113)"><path style="stroke:none" d="M 5.921875 -3.03125 L 8.203125 -10.546875 L 11.640625 -10.546875 L 7.90625 0 L 3.90625 0 L 0.171875 -10.546875 L 3.625 -10.546875 Z M 5.921875 -3.03125 "/></g></g><g style="fill:#363636;fill-opacity:1;"><g transform="translate(268.45525, 46.904113)"><path style="stroke:none" d="M 11.109375 -5.4375 C 11.109375 -5.132812 11.09375 -4.820312 11.0625 -4.5 L 3.75 -4.5 C 3.789062 -3.84375 4 -3.34375 4.375 -3 C 4.75 -2.65625 5.207031 -2.484375 5.75 -2.484375 C 6.550781 -2.484375 7.113281 -2.820312 7.4375 -3.5 L 10.875 -3.5 C 10.695312 -2.800781 10.375 -2.175781 9.90625 -1.625 C 9.445312 -1.070312 8.867188 -0.632812 8.171875 -0.3125 C 7.484375 0 6.710938 0.15625 5.859375 0.15625 C 4.828125 0.15625 3.90625 -0.0625 3.09375 -0.5 C 2.289062 -0.945312 1.660156 -1.578125 1.203125 -2.390625 C 0.753906 -3.210938 0.53125 -4.175781 0.53125 -5.28125 C 0.53125 -6.375 0.753906 -7.328125 1.203125 -8.140625 C 1.648438 -8.960938 2.273438 -9.59375 3.078125 -10.03125 C 3.890625 -10.476562 4.816406 -10.703125 5.859375 -10.703125 C 6.878906 -10.703125 7.785156 -10.488281 8.578125 -10.0625 C 9.378906 -9.632812 10 -9.019531 10.4375 -8.21875 C 10.882812 -7.425781 11.109375 -6.5 11.109375 -5.4375 Z M 7.8125 -6.296875 C 7.8125 -6.847656 7.617188 -7.285156 7.234375 -7.609375 C 6.859375 -7.941406 6.390625 -8.109375 5.828125 -8.109375 C 5.285156 -8.109375 4.828125 -7.953125 4.453125 -7.640625 C 4.078125 -7.328125 3.847656 -6.878906 3.765625 -6.296875 Z M 7.8125 -6.296875 "/></g></g><g style="fill:#363636;fill-opacity:1;"><g transform="translate(280.091877, 46.904113)"><path style="stroke:none" d="M 4.40625 -13.984375 L 4.40625 0 L 1.171875 0 L 1.171875 -13.984375 Z M 4.40625 -13.984375 "/></g></g><g style="fill:#363636;fill-opacity:1;"><g transform="translate(285.664623, 46.904113)"><path style="stroke:none" d="M 5.96875 0.15625 C 4.9375 0.15625 4.007812 -0.0625 3.1875 -0.5 C 2.363281 -0.945312 1.710938 -1.578125 1.234375 -2.390625 C 0.765625 -3.210938 0.53125 -4.175781 0.53125 -5.28125 C 0.53125 -6.363281 0.769531 -7.316406 1.25 -8.140625 C 1.726562 -8.960938 2.382812 -9.59375 3.21875 -10.03125 C 4.050781 -10.476562 4.984375 -10.703125 6.015625 -10.703125 C 7.046875 -10.703125 7.976562 -10.476562 8.8125 -10.03125 C 9.644531 -9.59375 10.300781 -8.960938 10.78125 -8.140625 C 11.257812 -7.316406 11.5 -6.363281 11.5 -5.28125 C 11.5 -4.195312 11.253906 -3.238281 10.765625 -2.40625 C 10.285156 -1.582031 9.625 -0.945312 8.78125 -0.5 C 7.945312 -0.0625 7.007812 0.15625 5.96875 0.15625 Z M 5.96875 -2.640625 C 6.59375 -2.640625 7.117188 -2.867188 7.546875 -3.328125 C 7.984375 -3.785156 8.203125 -4.4375 8.203125 -5.28125 C 8.203125 -6.125 7.988281 -6.769531 7.5625 -7.21875 C 7.144531 -7.675781 6.628906 -7.90625 6.015625 -7.90625 C 5.378906 -7.90625 4.851562 -7.679688 4.4375 -7.234375 C 4.019531 -6.785156 3.8125 -6.132812 3.8125 -5.28125 C 3.8125 -4.4375 4.015625 -3.785156 4.421875 -3.328125 C 4.835938 -2.867188 5.351562 -2.640625 5.96875 -2.640625 Z M 5.96875 -2.640625 "/></g></g><g style="fill:#363636;fill-opacity:1;"><g transform="translate(297.697947, 46.904113)"><path style="stroke:none" d="M 4.40625 -9.0625 C 4.71875 -9.550781 5.148438 -9.945312 5.703125 -10.25 C 6.265625 -10.550781 6.914062 -10.703125 7.65625 -10.703125 C 8.53125 -10.703125 9.316406 -10.476562 10.015625 -10.03125 C 10.722656 -9.59375 11.28125 -8.960938 11.6875 -8.140625 C 12.101562 -7.328125 12.3125 -6.378906 12.3125 -5.296875 C 12.3125 -4.210938 12.101562 -3.253906 11.6875 -2.421875 C 11.28125 -1.597656 10.722656 -0.960938 10.015625 -0.515625 C 9.316406 -0.0664062 8.53125 0.15625 7.65625 0.15625 C 6.925781 0.15625 6.28125 0.00390625 5.71875 -0.296875 C 5.15625 -0.597656 4.71875 -0.988281 4.40625 -1.46875 L 4.40625 5.03125 L 1.171875 5.03125 L 1.171875 -10.546875 L 4.40625 -10.546875 Z M 9.015625 -5.296875 C 9.015625 -6.097656 8.789062 -6.726562 8.34375 -7.1875 C 7.894531 -7.65625 7.34375 -7.890625 6.6875 -7.890625 C 6.050781 -7.890625 5.507812 -7.65625 5.0625 -7.1875 C 4.613281 -6.71875 4.390625 -6.082031 4.390625 -5.28125 C 4.390625 -4.46875 4.613281 -3.828125 5.0625 -3.359375 C 5.507812 -2.898438 6.050781 -2.671875 6.6875 -2.671875 C 7.332031 -2.671875 7.878906 -2.90625 8.328125 -3.375 C 8.785156 -3.84375 9.015625 -4.484375 9.015625 -5.296875 Z M 9.015625 -5.296875 "/></g></g><g style="fill:#363636;fill-opacity:1;"><g transform="translate(310.524667, 46.904113)"><path style="stroke:none" d="M 14.640625 -10.65625 C 15.941406 -10.65625 16.976562 -10.257812 17.75 -9.46875 C 18.53125 -8.675781 18.921875 -7.570312 18.921875 -6.15625 L 18.921875 0 L 15.71875 0 L 15.71875 -5.734375 C 15.71875 -6.410156 15.535156 -6.929688 15.171875 -7.296875 C 14.816406 -7.671875 14.320312 -7.859375 13.6875 -7.859375 C 13.0625 -7.859375 12.566406 -7.671875 12.203125 -7.296875 C 11.847656 -6.929688 11.671875 -6.410156 11.671875 -5.734375 L 11.671875 0 L 8.453125 0 L 8.453125 -5.734375 C 8.453125 -6.410156 8.269531 -6.929688 7.90625 -7.296875 C 7.550781 -7.671875 7.054688 -7.859375 6.421875 -7.859375 C 5.796875 -7.859375 5.300781 -7.671875 4.9375 -7.296875 C 4.582031 -6.929688 4.40625 -6.410156 4.40625 -5.734375 L 4.40625 0 L 1.171875 0 L 1.171875 -10.546875 L 4.40625 -10.546875 L 4.40625 -9.21875 C 4.726562 -9.664062 5.15625 -10.015625 5.6875 -10.265625 C 6.21875 -10.523438 6.816406 -10.65625 7.484375 -10.65625 C 8.273438 -10.65625 8.984375 -10.484375 9.609375 -10.140625 C 10.234375 -9.804688 10.722656 -9.328125 11.078125 -8.703125 C 11.441406 -9.273438 11.9375 -9.742188 12.5625 -10.109375 C 13.195312 -10.472656 13.890625 -10.65625 14.640625 -10.65625 Z M 14.640625 -10.65625 "/></g></g><g style="fill:#363636;fill-opacity:1;"><g transform="translate(330.52983, 46.904113)"><path style="stroke:none" d="M 11.109375 -5.4375 C 11.109375 -5.132812 11.09375 -4.820312 11.0625 -4.5 L 3.75 -4.5 C 3.789062 -3.84375 4 -3.34375 4.375 -3 C 4.75 -2.65625 5.207031 -2.484375 5.75 -2.484375 C 6.550781 -2.484375 7.113281 -2.820312 7.4375 -3.5 L 10.875 -3.5 C 10.695312 -2.800781 10.375 -2.175781 9.90625 -1.625 C 9.445312 -1.070312 8.867188 -0.632812 8.171875 -0.3125 C 7.484375 0 6.710938 0.15625 5.859375 0.15625 C 4.828125 0.15625 3.90625 -0.0625 3.09375 -0.5 C 2.289062 -0.945312 1.660156 -1.578125 1.203125 -2.390625 C 0.753906 -3.210938 0.53125 -4.175781 0.53125 -5.28125 C 0.53125 -6.375 0.753906 -7.328125 1.203125 -8.140625 C 1.648438 -8.960938 2.273438 -9.59375 3.078125 -10.03125 C 3.890625 -10.476562 4.816406 -10.703125 5.859375 -10.703125 C 6.878906 -10.703125 7.785156 -10.488281 8.578125 -10.0625 C 9.378906 -9.632812 10 -9.019531 10.4375 -8.21875 C 10.882812 -7.425781 11.109375 -6.5 11.109375 -5.4375 Z M 7.8125 -6.296875 C 7.8125 -6.847656 7.617188 -7.285156 7.234375 -7.609375 C 6.859375 -7.941406 6.390625 -8.109375 5.828125 -8.109375 C 5.285156 -8.109375 4.828125 -7.953125 4.453125 -7.640625 C 4.078125 -7.328125 3.847656 -6.878906 3.765625 -6.296875 Z M 7.8125 -6.296875 "/></g></g><g style="fill:#363636;fill-opacity:1;"><g transform="translate(342.166456, 46.904113)"><path style="stroke:none" d="M 7.59375 -10.65625 C 8.832031 -10.65625 9.820312 -10.253906 10.5625 -9.453125 C 11.300781 -8.660156 11.671875 -7.5625 11.671875 -6.15625 L 11.671875 0 L 8.453125 0 L 8.453125 -5.734375 C 8.453125 -6.429688 8.269531 -6.972656 7.90625 -7.359375 C 7.539062 -7.753906 7.046875 -7.953125 6.421875 -7.953125 C 5.804688 -7.953125 5.316406 -7.753906 4.953125 -7.359375 C 4.585938 -6.972656 4.40625 -6.429688 4.40625 -5.734375 L 4.40625 0 L 1.171875 0 L 1.171875 -10.546875 L 4.40625 -10.546875 L 4.40625 -9.15625 C 4.726562 -9.613281 5.164062 -9.976562 5.71875 -10.25 C 6.28125 -10.519531 6.90625 -10.65625 7.59375 -10.65625 Z M 7.59375 -10.65625 "/></g></g><g style="fill:#363636;fill-opacity:1;"><g transform="translate(354.898717, 46.904113)"><path style="stroke:none" d="M 7.046875 -2.734375 L 7.046875 0 L 5.40625 0 C 4.238281 0 3.328125 -0.285156 2.671875 -0.859375 C 2.015625 -1.429688 1.6875 -2.367188 1.6875 -3.671875 L 1.6875 -7.859375 L 0.390625 -7.859375 L 0.390625 -10.546875 L 1.6875 -10.546875 L 1.6875 -13.125 L 4.921875 -13.125 L 4.921875 -10.546875 L 7.03125 -10.546875 L 7.03125 -7.859375 L 4.921875 -7.859375 L 4.921875 -3.625 C 4.921875 -3.3125 4.992188 -3.082031 5.140625 -2.9375 C 5.296875 -2.800781 5.550781 -2.734375 5.90625 -2.734375 Z M 7.046875 -2.734375 "/></g></g></g></svg>