<svg version="1.2" xmlns="http://www.w3.org/2000/svg" viewBox="0 0 340 101" width="340" height="101"><style>.a{fill:#fff}.b{fill:#363636}</style><path fill-rule="evenodd" class="a" d="m-100 1.3h500v100h-500z"/><path fill-rule="evenodd" class="a" d="m-100 1.3h500v100h-500z"/><path class="b" d="m91.1 72.4q-1.7 0-3.3 0.8l-11.3-11.3h-9v5.3h6.8l9.7 9.7q-0.7 1.6-0.7 3.4 0 0.8 0.1 1.5 0.2 0.8 0.5 1.5 0.3 0.7 0.7 1.4 0.4 0.6 1 1.2 0.5 0.5 1.2 0.9 0.6 0.5 1.3 0.8 0.7 0.3 1.5 0.4 0.8 0.2 1.5 0.2 0.8 0 1.6-0.2 0.7-0.1 1.5-0.4 0.7-0.3 1.3-0.8 0.7-0.4 1.2-0.9 0.6-0.6 1-1.2 0.4-0.7 0.7-1.4 0.3-0.7 0.5-1.5 0.1-0.7 0.1-1.5 0-0.8-0.1-1.5-0.2-0.8-0.5-1.5-0.3-0.7-0.7-1.4-0.4-0.6-1-1.2-0.5-0.5-1.2-1-0.6-0.4-1.3-0.7-0.8-0.3-1.5-0.4-0.8-0.2-1.6-0.2zm0 10.5q-0.5 0-1-0.2-0.5-0.2-0.8-0.5-0.4-0.4-0.6-0.9-0.2-0.5-0.2-1 0-0.5 0.2-1 0.2-0.5 0.6-0.9 0.3-0.3 0.8-0.5 0.5-0.2 1-0.2 0.6 0 1 0.2 0.5 0.2 0.9 0.5 0.4 0.4 0.6 0.9 0.2 0.5 0.2 1 0 0.5-0.2 1-0.2 0.5-0.6 0.9-0.4 0.3-0.9 0.5-0.4 0.2-1 0.2z"/><path class="b" d="m91.1 43.5q-1.2 0.1-2.3 0.4-1.2 0.4-2.2 1.1-1 0.7-1.7 1.7-0.8 0.9-1.2 2.1h-16.2v5.2h16.2q0.3 0.7 0.6 1.3 0.4 0.7 0.9 1.2 0.4 0.6 1 1 0.5 0.5 1.2 0.8 0.6 0.4 1.3 0.6 0.7 0.2 1.4 0.3 0.7 0.1 1.4 0.1 0.7-0.1 1.4-0.2 0.7-0.2 1.4-0.5 0.6-0.3 1.2-0.7 0.6-0.4 1.2-0.9 0.5-0.5 0.9-1.1 0.4-0.6 0.7-1.2 0.3-0.7 0.5-1.4 0.1-0.7 0.2-1.4 0-0.7 0-1.4-0.1-0.7-0.3-1.4-0.2-0.7-0.6-1.3-0.3-0.7-0.8-1.2-0.4-0.6-0.9-1.1-0.6-0.4-1.2-0.8-0.6-0.4-1.3-0.6-0.6-0.3-1.3-0.4-0.7-0.2-1.5-0.2zm0 10.5q-0.5 0-1-0.2-0.5-0.2-0.8-0.5-0.4-0.4-0.6-0.9-0.2-0.5-0.2-1 0-0.5 0.2-1 0.2-0.5 0.6-0.8 0.3-0.4 0.8-0.6 0.5-0.2 1-0.2 0.6 0 1 0.2 0.5 0.2 0.9 0.6 0.4 0.3 0.6 0.8 0.2 0.5 0.2 1 0 0.5-0.2 1-0.2 0.5-0.6 0.9-0.4 0.3-0.9 0.5-0.4 0.2-1 0.2z"/><path class="b" d="m91.1 14.7q-0.7 0-1.5 0.1-0.8 0.2-1.5 0.5-0.7 0.3-1.3 0.7-0.7 0.4-1.2 1-0.6 0.5-1 1.2-0.4 0.6-0.7 1.3-0.3 0.7-0.5 1.5-0.1 0.8-0.1 1.5 0 2 0.9 3.7l-9.9 9.5h-6.8v5.2h8.9l11.6-11.1q0.8 0.3 1.7 0.5 0.8 0.1 1.7 0.1 0.9 0 1.7-0.2 0.9-0.3 1.7-0.7 0.7-0.4 1.4-0.9 0.7-0.6 1.2-1.3 0.5-0.7 0.9-1.5 0.4-0.8 0.5-1.6 0.2-0.9 0.2-1.8 0-0.9-0.2-1.7-0.2-0.9-0.6-1.7-0.4-0.7-1-1.4-0.5-0.7-1.2-1.2-0.7-0.6-1.5-1-0.8-0.3-1.6-0.5-0.9-0.2-1.8-0.2zm0 10.5q-0.5 0-1-0.2-0.5-0.2-0.8-0.6-0.4-0.4-0.6-0.8-0.2-0.5-0.2-1.1 0-0.5 0.2-1 0.2-0.4 0.6-0.8 0.3-0.4 0.8-0.6 0.5-0.2 1-0.2 0.6 0 1 0.2 0.5 0.2 0.9 0.6 0.4 0.4 0.6 0.8 0.2 0.5 0.2 1 0 0.6-0.2 1.1-0.2 0.4-0.6 0.8-0.4 0.4-0.9 0.6-0.4 0.2-1 0.2z"/><path class="b" d="m67.5 25.2h5.3v-5.3h-5.3q-2.3 0-4.3 1-2.1 0.9-3.6 2.7-1.4-1.8-3.5-2.7-2.1-1-4.3-1h-2.7q-1.1 0-2.3 0.1-1.1 0.2-2.3 0.4-1.1 0.2-2.2 0.5-1.1 0.4-2.2 0.8-1.1 0.5-2.1 1-1 0.6-2 1.2-0.9 0.7-1.8 1.4-0.9 0.7-1.8 1.5-0.8 0.9-1.5 1.8-0.8 0.9-1.4 1.8-0.6 1-1.2 2-0.5 1-1 2.1-0.4 1.1-0.8 2.2-0.3 1.1-0.5 2.2-0.3 1.2-0.4 2.3-0.1 1.2-0.1 2.3v15.8q0 1.2 0.1 2.3 0.1 1.2 0.4 2.3 0.2 1.1 0.5 2.3 0.4 1.1 0.8 2.1 0.5 1.1 1 2.1 0.6 1.1 1.2 2 0.6 1 1.4 1.9 0.7 0.9 1.5 1.7 0.9 0.8 1.8 1.6 0.9 0.7 1.8 1.3 1 0.7 2 1.2 1 0.6 2.1 1 1.1 0.5 2.2 0.8 1.1 0.3 2.2 0.6 1.2 0.2 2.3 0.3 1.2 0.1 2.3 0.1h2.7q2.2 0 4.3-0.9 2.1-1 3.5-2.7 1.5 1.7 3.6 2.7 2 0.9 4.3 0.9h5.3v-5.2h-5.3q-1 0-2-0.4-1-0.4-1.7-1.2-0.7-0.7-1.1-1.7-0.4-0.9-0.4-2v-42q0-1 0.4-2 0.4-1 1.1-1.7 0.7-0.7 1.7-1.1 1-0.4 2-0.4zm-15.7 52.5h-2.7q-1.6 0-3.2-0.3-1.6-0.3-3.2-0.9-1.5-0.6-2.9-1.4-1.4-0.8-2.7-1.9-1.2-1.1-2.3-2.4-1-1.3-1.8-2.7-0.8-1.4-1.3-3-0.5-1.6-0.7-3.2h5v-5.2h-5.2v-10.5h7.8q0.8 0 1.6-0.2 0.7-0.1 1.4-0.4 0.8-0.3 1.4-0.8 0.6-0.4 1.2-0.9 0.5-0.6 1-1.2 0.4-0.7 0.7-1.4 0.3-0.7 0.5-1.5 0.1-0.7 0.1-1.5v-5.3h-5.2v5.3q0 0.5-0.2 1-0.2 0.5-0.6 0.9-0.4 0.3-0.9 0.5-0.4 0.2-1 0.2h-7.6q0.2-1.6 0.7-3.2 0.5-1.5 1.3-3 0.8-1.4 1.8-2.7 1.1-1.3 2.3-2.3 1.3-1.1 2.7-1.9 1.4-0.9 2.9-1.5 1.6-0.5 3.2-0.8 1.6-0.3 3.2-0.3h2.7q1 0 2 0.4 0.9 0.4 1.7 1.1 0.7 0.7 1.1 1.7 0.4 1 0.4 2v10.5h-5.2v5.3h5.2v10.5h-5.2q-0.8 0-1.6 0.1-0.7 0.2-1.5 0.5-0.7 0.3-1.3 0.7-0.7 0.4-1.2 1-0.6 0.5-1 1.2-0.4 0.6-0.7 1.3-0.3 0.7-0.5 1.5-0.1 0.8-0.1 1.5v5.3h5.2v-5.3q0-0.5 0.2-1 0.2-0.4 0.6-0.8 0.4-0.4 0.9-0.6 0.4-0.2 1-0.2h5.2v10.5q0 1.1-0.4 2-0.4 1-1.1 1.7-0.8 0.8-1.7 1.2-1 0.4-2 0.4z"/><path class="b" d="m135 57.4h-7.4l-1.1 3.4h-5l7.1-19.5h5.5l7.1 19.5h-5.1zm-1.2-3.7l-2.4-7.1-2.4 7.1z"/><path class="b" d="m148.1 41.3v19.5h-4.8v-19.5z"/><path class="b" d=""/><path class="b" d="m162.2 41.3v19.5h-4.8v-19.5z"/><path class="b" d="m175.1 45.1q2.7 0 4.4 1.8 1.6 1.7 1.6 4.8v9.1h-4.7v-8.4q0-1.6-0.8-2.4-0.9-0.9-2.2-0.9-1.4 0-2.2 0.9-0.8 0.8-0.8 2.4v8.4h-4.8v-15.5h4.8v2q0.7-1 1.9-1.6 1.3-0.6 2.8-0.6z"/><path class="b" d="m193.1 56.8v4h-2.4q-2.6 0-4.1-1.2-1.4-1.3-1.4-4.2v-6.2h-1.9v-3.9h1.9v-3.8h4.7v3.8h3.2v3.9h-3.2v6.3q0 0.7 0.4 1 0.3 0.3 1.1 0.3z"/><path class="b" d="m210.4 52.8q0 0.7-0.1 1.4h-10.8q0.1 1.4 0.9 2.2 0.9 0.8 2.1 0.8 1.7 0 2.5-1.5h5q-0.4 1.5-1.4 2.7-1 1.3-2.5 2-1.6 0.7-3.5 0.7-2.3 0-4-1-1.8-1-2.8-2.8-1-1.8-1-4.2 0-2.5 0.9-4.3 1-1.8 2.8-2.8 1.8-0.9 4.1-0.9 2.3 0 4 0.9 1.8 1 2.8 2.7 1 1.8 1 4.1zm-4.9-1.3q0-1.2-0.8-1.9-0.9-0.7-2.1-0.7-1.2 0-2 0.7-0.9 0.7-1.1 1.9z"/><path class="b" d="m218.8 45.1q1.6 0 2.9 0.6 1.2 0.7 1.9 1.8v-2.2h4.8v15.5q0 2.2-0.9 3.9-0.8 1.7-2.6 2.8-1.7 1-4.3 1-3.5 0-5.6-1.6-2.2-1.7-2.5-4.4h4.7q0.2 0.8 1.1 1.4 0.8 0.5 2.1 0.5 1.4 0 2.3-0.9 0.9-0.8 0.9-2.7v-2.2q-0.7 1.1-1.9 1.8-1.3 0.7-2.9 0.7-1.9 0-3.5-1-1.6-1-2.5-2.9-0.9-1.8-0.9-4.2 0-2.4 0.9-4.2 0.9-1.8 2.5-2.8 1.6-0.9 3.5-0.9zm4.8 8q0-1.8-1-2.9-1-1-2.4-1-1.4 0-2.4 1-1 1.1-1 2.8 0 1.8 1 2.9 1 1 2.4 1 1.4 0 2.4-1 1-1.1 1-2.8z"/><path class="b" d="m236.6 47.9q0.8-1.3 2.1-2 1.2-0.8 2.8-0.8v5.1h-1.4q-1.8 0-2.6 0.7-0.9 0.8-0.9 2.7v7.2h-4.8v-15.5h4.8z"/><path class="b" d="m242.8 53q0-2.4 0.9-4.2 0.9-1.8 2.4-2.8 1.6-0.9 3.5-0.9 1.7 0 2.9 0.6 1.3 0.7 1.9 1.8v-2.2h4.8v15.5h-4.8v-2.2q-0.7 1.1-1.9 1.8-1.3 0.7-2.9 0.7-1.9 0-3.5-1-1.5-1-2.4-2.9-0.9-1.8-0.9-4.2zm11.6 0.1q0-1.8-1-2.9-0.9-1-2.4-1-1.4 0-2.4 1-1 1.1-1 2.8 0 1.8 1 2.9 1 1 2.4 1 1.5 0 2.4-1 1-1.1 1-2.8z"/><path class="b" d="m271.3 56.8v4h-2.4q-2.6 0-4.1-1.2-1.4-1.3-1.4-4.2v-6.2h-1.9v-3.9h1.9v-3.8h4.8v3.8h3.1v3.9h-3.1v6.3q0 0.7 0.3 1 0.3 0.3 1.1 0.3z"/><path class="b" d="m276.4 43.7q-1.3 0-2.1-0.8-0.8-0.7-0.8-1.8 0-1.1 0.8-1.9 0.8-0.7 2.1-0.7 1.2 0 2 0.7 0.8 0.8 0.8 1.9 0 1.1-0.8 1.8-0.8 0.8-2 0.8zm2.3 1.6v15.5h-4.7v-15.5z"/><path class="b" d="m289.3 61.1q-2.3 0-4.2-1-1.8-1-2.8-2.8-1.1-1.8-1.1-4.2 0-2.4 1.1-4.3 1-1.8 2.9-2.8 1.8-0.9 4.1-0.9 2.3 0 4.1 0.9 1.9 1 2.9 2.8 1.1 1.9 1.1 4.3 0 2.4-1.1 4.2-1.1 1.8-2.9 2.8-1.9 1-4.1 1zm0-4.2q1.3 0 2.3-1 0.9-1 1-2.8 0-1.9-1-2.9-0.9-1-2.3-1-1.4 0-2.3 1-0.9 1-0.9 2.9 0 1.8 0.9 2.8 0.9 1 2.3 1z"/><path class="b" d="m309.4 45.1q2.7 0 4.4 1.8 1.6 1.7 1.6 4.8v9.1h-4.7v-8.4q0-1.6-0.9-2.4-0.8-0.9-2.1-0.9-1.4 0-2.2 0.9-0.8 0.8-0.8 2.4v8.4h-4.8v-15.5h4.8v2q0.7-1 1.9-1.6 1.3-0.6 2.8-0.6z"/></svg>