<svg xmlns="http://www.w3.org/2000/svg" xmlns:xlink="http://www.w3.org/1999/xlink" width="500" zoomAndPan="magnify" viewBox="0 0 375 74.999997" height="100" preserveAspectRatio="xMidYMid meet" version="1.2"><defs/><g id="03c4517355"><rect x="0" width="375" y="0" height="74.999997" style="fill:#ffffff;fill-opacity:1;stroke:none;"/><rect x="0" width="375" y="0" height="74.999997" style="fill:#ffffff;fill-opacity:1;stroke:none;"/><path style=" stroke:none;fill-rule:nonzero;fill:#363636;fill-opacity:1;" d="M 143.351562 53.316406 C 142.460938 53.320312 141.617188 53.519531 140.820312 53.910156 L 132.355469 45.441406 L 125.632812 45.441406 L 125.632812 49.378906 L 130.722656 49.378906 L 138.035156 56.691406 C 137.648438 57.492188 137.449219 58.335938 137.445312 59.222656 C 137.445312 59.609375 137.484375 59.996094 137.558594 60.375 C 137.632812 60.757812 137.746094 61.125 137.894531 61.484375 C 138.042969 61.84375 138.226562 62.183594 138.441406 62.503906 C 138.65625 62.828125 138.902344 63.125 139.175781 63.398438 C 139.449219 63.675781 139.746094 63.917969 140.070312 64.132812 C 140.390625 64.351562 140.734375 64.53125 141.089844 64.679688 C 141.449219 64.828125 141.820312 64.941406 142.199219 65.015625 C 142.578125 65.089844 142.964844 65.128906 143.351562 65.128906 C 143.738281 65.128906 144.121094 65.089844 144.503906 65.015625 C 144.882812 64.941406 145.253906 64.828125 145.613281 64.679688 C 145.96875 64.53125 146.308594 64.351562 146.632812 64.132812 C 146.953125 63.917969 147.253906 63.675781 147.527344 63.398438 C 147.800781 63.125 148.046875 62.828125 148.261719 62.503906 C 148.476562 62.183594 148.660156 61.84375 148.808594 61.484375 C 148.957031 61.125 149.066406 60.757812 149.144531 60.375 C 149.21875 59.996094 149.257812 59.609375 149.257812 59.222656 C 149.257812 58.835938 149.21875 58.453125 149.144531 58.070312 C 149.066406 57.691406 148.957031 57.320312 148.808594 56.964844 C 148.660156 56.605469 148.476562 56.265625 148.261719 55.941406 C 148.046875 55.621094 147.800781 55.320312 147.527344 55.046875 C 147.253906 54.773438 146.953125 54.527344 146.632812 54.3125 C 146.308594 54.097656 145.96875 53.914062 145.613281 53.765625 C 145.253906 53.617188 144.882812 53.507812 144.503906 53.429688 C 144.121094 53.355469 143.738281 53.316406 143.351562 53.316406 Z M 143.351562 61.191406 C 143.089844 61.191406 142.839844 61.140625 142.597656 61.042969 C 142.355469 60.941406 142.144531 60.800781 141.960938 60.617188 C 141.773438 60.429688 141.632812 60.21875 141.53125 59.976562 C 141.433594 59.734375 141.382812 59.484375 141.382812 59.222656 C 141.382812 58.960938 141.433594 58.710938 141.53125 58.46875 C 141.632812 58.230469 141.773438 58.015625 141.960938 57.832031 C 142.144531 57.648438 142.355469 57.503906 142.597656 57.40625 C 142.839844 57.304688 143.089844 57.253906 143.351562 57.253906 C 143.613281 57.253906 143.863281 57.304688 144.105469 57.40625 C 144.347656 57.503906 144.558594 57.648438 144.742188 57.832031 C 144.929688 58.015625 145.070312 58.230469 145.171875 58.46875 C 145.269531 58.710938 145.320312 58.960938 145.320312 59.222656 C 145.320312 59.484375 145.269531 59.734375 145.167969 59.976562 C 145.070312 60.21875 144.925781 60.429688 144.742188 60.613281 C 144.558594 60.800781 144.34375 60.941406 144.105469 61.042969 C 143.863281 61.140625 143.613281 61.191406 143.351562 61.191406 Z M 143.351562 61.191406 "/><path style=" stroke:none;fill-rule:nonzero;fill:#363636;fill-opacity:1;" d="M 143.351562 31.660156 C 142.742188 31.664062 142.148438 31.757812 141.570312 31.941406 C 140.988281 32.128906 140.449219 32.398438 139.953125 32.75 C 139.457031 33.101562 139.027344 33.523438 138.660156 34.007812 C 138.292969 34.492188 138.011719 35.023438 137.808594 35.597656 L 125.632812 35.597656 L 125.632812 39.535156 L 137.808594 39.535156 C 137.929688 39.875 138.078125 40.199219 138.257812 40.507812 C 138.4375 40.820312 138.644531 41.113281 138.878906 41.382812 C 139.109375 41.65625 139.367188 41.90625 139.644531 42.132812 C 139.921875 42.359375 140.21875 42.558594 140.535156 42.730469 C 140.851562 42.902344 141.179688 43.046875 141.519531 43.15625 C 141.859375 43.269531 142.210938 43.351562 142.566406 43.398438 C 142.921875 43.445312 143.277344 43.460938 143.636719 43.445312 C 143.996094 43.429688 144.347656 43.378906 144.699219 43.296875 C 145.046875 43.21875 145.386719 43.105469 145.714844 42.960938 C 146.046875 42.816406 146.359375 42.644531 146.65625 42.445312 C 146.953125 42.246094 147.230469 42.019531 147.488281 41.765625 C 147.746094 41.515625 147.976562 41.242188 148.183594 40.949219 C 148.390625 40.65625 148.566406 40.347656 148.71875 40.019531 C 148.867188 39.695312 148.988281 39.359375 149.074219 39.007812 C 149.164062 38.660156 149.21875 38.308594 149.242188 37.949219 C 149.269531 37.59375 149.257812 37.234375 149.21875 36.878906 C 149.175781 36.523438 149.105469 36.171875 149 35.828125 C 148.894531 35.484375 148.757812 35.15625 148.59375 34.835938 C 148.425781 34.519531 148.234375 34.21875 148.011719 33.933594 C 147.792969 33.652344 147.546875 33.390625 147.28125 33.152344 C 147.011719 32.914062 146.722656 32.699219 146.417969 32.515625 C 146.109375 32.328125 145.789062 32.171875 145.453125 32.042969 C 145.117188 31.917969 144.773438 31.820312 144.417969 31.757812 C 144.066406 31.691406 143.710938 31.660156 143.351562 31.660156 Z M 143.351562 39.535156 C 143.089844 39.535156 142.839844 39.484375 142.597656 39.386719 C 142.355469 39.285156 142.144531 39.144531 141.960938 38.960938 C 141.773438 38.773438 141.632812 38.5625 141.53125 38.320312 C 141.433594 38.078125 141.382812 37.828125 141.382812 37.566406 C 141.382812 37.304688 141.433594 37.054688 141.53125 36.8125 C 141.632812 36.574219 141.773438 36.359375 141.960938 36.175781 C 142.144531 35.992188 142.355469 35.847656 142.597656 35.75 C 142.839844 35.648438 143.089844 35.597656 143.351562 35.597656 C 143.613281 35.597656 143.863281 35.648438 144.105469 35.75 C 144.347656 35.847656 144.558594 35.992188 144.742188 36.175781 C 144.929688 36.359375 145.070312 36.574219 145.171875 36.8125 C 145.269531 37.054688 145.320312 37.304688 145.320312 37.566406 C 145.320312 37.828125 145.269531 38.078125 145.167969 38.320312 C 145.070312 38.5625 144.925781 38.773438 144.742188 38.957031 C 144.558594 39.144531 144.34375 39.285156 144.105469 39.386719 C 143.863281 39.484375 143.613281 39.535156 143.351562 39.535156 Z M 143.351562 39.535156 "/><path style=" stroke:none;fill-rule:nonzero;fill:#363636;fill-opacity:1;" d="M 143.351562 10.003906 C 142.964844 10.003906 142.578125 10.042969 142.199219 10.117188 C 141.820312 10.195312 141.449219 10.308594 141.09375 10.457031 C 140.734375 10.605469 140.394531 10.785156 140.070312 11 C 139.75 11.21875 139.449219 11.460938 139.175781 11.738281 C 138.902344 12.011719 138.65625 12.308594 138.441406 12.632812 C 138.226562 12.953125 138.042969 13.292969 137.894531 13.652344 C 137.746094 14.007812 137.636719 14.378906 137.558594 14.757812 C 137.484375 15.140625 137.445312 15.523438 137.445312 15.910156 C 137.453125 16.867188 137.679688 17.769531 138.128906 18.613281 L 130.742188 25.753906 L 125.632812 25.753906 L 125.632812 29.691406 L 132.335938 29.691406 L 140.996094 21.320312 C 141.398438 21.496094 141.8125 21.625 142.246094 21.707031 C 142.675781 21.789062 143.109375 21.824219 143.550781 21.808594 C 143.988281 21.792969 144.417969 21.730469 144.84375 21.621094 C 145.269531 21.511719 145.675781 21.355469 146.066406 21.152344 C 146.457031 20.949219 146.816406 20.707031 147.152344 20.425781 C 147.488281 20.144531 147.789062 19.828125 148.054688 19.476562 C 148.320312 19.128906 148.542969 18.753906 148.726562 18.355469 C 148.910156 17.957031 149.042969 17.542969 149.132812 17.113281 C 149.222656 16.683594 149.265625 16.246094 149.257812 15.808594 C 149.25 15.371094 149.195312 14.9375 149.089844 14.511719 C 148.984375 14.085938 148.835938 13.675781 148.640625 13.28125 C 148.445312 12.890625 148.210938 12.523438 147.933594 12.183594 C 147.65625 11.84375 147.34375 11.535156 147 11.265625 C 146.65625 10.996094 146.285156 10.765625 145.886719 10.574219 C 145.492188 10.386719 145.078125 10.246094 144.652344 10.148438 C 144.222656 10.050781 143.789062 10.003906 143.351562 10.003906 Z M 143.351562 17.878906 C 143.089844 17.878906 142.839844 17.828125 142.597656 17.730469 C 142.355469 17.628906 142.144531 17.488281 141.960938 17.304688 C 141.773438 17.117188 141.632812 16.90625 141.53125 16.664062 C 141.433594 16.421875 141.382812 16.171875 141.382812 15.910156 C 141.382812 15.648438 141.433594 15.398438 141.53125 15.15625 C 141.632812 14.917969 141.773438 14.703125 141.960938 14.519531 C 142.144531 14.335938 142.355469 14.191406 142.597656 14.09375 C 142.839844 13.992188 143.089844 13.941406 143.351562 13.941406 C 143.613281 13.941406 143.863281 13.992188 144.105469 14.09375 C 144.347656 14.191406 144.558594 14.335938 144.742188 14.519531 C 144.929688 14.703125 145.070312 14.917969 145.171875 15.15625 C 145.269531 15.398438 145.320312 15.648438 145.320312 15.910156 C 145.320312 16.171875 145.269531 16.421875 145.167969 16.664062 C 145.070312 16.90625 144.925781 17.117188 144.742188 17.300781 C 144.558594 17.488281 144.34375 17.628906 144.105469 17.730469 C 143.863281 17.828125 143.613281 17.878906 143.351562 17.878906 Z M 143.351562 17.878906 "/><path style=" stroke:none;fill-rule:nonzero;fill:#363636;fill-opacity:1;" d="M 125.632812 17.878906 L 129.570312 17.878906 L 129.570312 13.941406 L 125.632812 13.941406 C 124.496094 13.945312 123.414062 14.183594 122.382812 14.660156 C 121.351562 15.136719 120.464844 15.804688 119.726562 16.664062 C 118.984375 15.804688 118.101562 15.136719 117.070312 14.660156 C 116.039062 14.183594 114.953125 13.945312 113.820312 13.941406 L 111.851562 13.941406 C 111.269531 13.941406 110.691406 13.972656 110.113281 14.027344 C 109.539062 14.085938 108.964844 14.171875 108.394531 14.285156 C 107.828125 14.398438 107.265625 14.539062 106.710938 14.710938 C 106.15625 14.878906 105.609375 15.074219 105.074219 15.296875 C 104.539062 15.519531 104.015625 15.765625 103.503906 16.039062 C 102.992188 16.3125 102.492188 16.613281 102.011719 16.933594 C 101.53125 17.257812 101.0625 17.601562 100.617188 17.96875 C 100.167969 18.339844 99.738281 18.726562 99.328125 19.136719 C 98.917969 19.546875 98.527344 19.976562 98.160156 20.425781 C 97.792969 20.875 97.445312 21.339844 97.125 21.820312 C 96.800781 22.304688 96.503906 22.800781 96.230469 23.3125 C 95.957031 23.824219 95.707031 24.347656 95.488281 24.882812 C 95.265625 25.417969 95.070312 25.964844 94.898438 26.519531 C 94.730469 27.074219 94.589844 27.636719 94.476562 28.207031 C 94.363281 28.773438 94.277344 29.347656 94.21875 29.925781 C 94.160156 30.5 94.132812 31.082031 94.132812 31.660156 L 94.132812 43.472656 C 94.132812 44.054688 94.160156 44.632812 94.21875 45.210938 C 94.277344 45.785156 94.363281 46.359375 94.476562 46.929688 C 94.589844 47.496094 94.730469 48.058594 94.898438 48.613281 C 95.070312 49.167969 95.265625 49.714844 95.488281 50.25 C 95.707031 50.785156 95.957031 51.308594 96.230469 51.820312 C 96.503906 52.332031 96.800781 52.832031 97.125 53.3125 C 97.445312 53.796875 97.792969 54.261719 98.160156 54.707031 C 98.527344 55.15625 98.917969 55.585938 99.328125 55.996094 C 99.738281 56.40625 100.167969 56.796875 100.617188 57.164062 C 101.0625 57.53125 101.53125 57.878906 102.011719 58.199219 C 102.492188 58.523438 102.992188 58.820312 103.503906 59.09375 C 104.015625 59.367188 104.539062 59.617188 105.074219 59.839844 C 105.609375 60.058594 106.15625 60.257812 106.710938 60.425781 C 107.265625 60.59375 107.828125 60.734375 108.394531 60.847656 C 108.964844 60.960938 109.539062 61.046875 110.113281 61.105469 C 110.691406 61.164062 111.269531 61.191406 111.851562 61.191406 L 113.820312 61.191406 C 114.953125 61.1875 116.039062 60.949219 117.070312 60.472656 C 118.101562 60 118.984375 59.332031 119.726562 58.46875 C 120.464844 59.332031 121.351562 60 122.382812 60.472656 C 123.414062 60.949219 124.496094 61.1875 125.632812 61.191406 L 129.570312 61.191406 L 129.570312 57.253906 L 125.632812 57.253906 C 125.109375 57.253906 124.609375 57.152344 124.125 56.953125 C 123.644531 56.753906 123.21875 56.46875 122.847656 56.101562 C 122.480469 55.730469 122.195312 55.304688 121.996094 54.824219 C 121.796875 54.339844 121.695312 53.839844 121.695312 53.316406 L 121.695312 21.816406 C 121.695312 21.296875 121.796875 20.792969 121.996094 20.3125 C 122.195312 19.828125 122.480469 19.402344 122.847656 19.035156 C 123.21875 18.664062 123.644531 18.378906 124.125 18.179688 C 124.609375 17.980469 125.109375 17.878906 125.632812 17.878906 Z M 113.820312 57.253906 L 111.851562 57.253906 C 111.03125 57.253906 110.214844 57.179688 109.40625 57.03125 C 108.601562 56.886719 107.8125 56.667969 107.042969 56.378906 C 106.273438 56.09375 105.535156 55.738281 104.832031 55.320312 C 104.125 54.898438 103.460938 54.421875 102.839844 53.882812 C 102.222656 53.34375 101.652344 52.757812 101.136719 52.117188 C 100.621094 51.476562 100.167969 50.796875 99.773438 50.078125 C 99.378906 49.359375 99.054688 48.609375 98.792969 47.828125 C 98.535156 47.050781 98.34375 46.253906 98.226562 45.441406 L 102.007812 45.441406 L 102.007812 41.503906 L 98.070312 41.503906 L 98.070312 33.628906 L 103.976562 33.628906 C 104.363281 33.628906 104.746094 33.589844 105.128906 33.515625 C 105.507812 33.4375 105.878906 33.328125 106.234375 33.179688 C 106.59375 33.03125 106.933594 32.847656 107.257812 32.632812 C 107.578125 32.417969 107.875 32.171875 108.152344 31.898438 C 108.425781 31.625 108.667969 31.324219 108.886719 31.003906 C 109.101562 30.679688 109.28125 30.339844 109.429688 29.984375 C 109.578125 29.625 109.691406 29.253906 109.769531 28.875 C 109.84375 28.496094 109.882812 28.109375 109.882812 27.722656 L 109.882812 23.785156 L 105.945312 23.785156 L 105.945312 27.722656 C 105.945312 27.984375 105.894531 28.234375 105.792969 28.476562 C 105.695312 28.71875 105.550781 28.929688 105.367188 29.113281 C 105.183594 29.300781 104.96875 29.441406 104.730469 29.542969 C 104.488281 29.640625 104.238281 29.691406 103.976562 29.691406 L 98.226562 29.691406 C 98.34375 28.878906 98.535156 28.082031 98.792969 27.304688 C 99.054688 26.527344 99.378906 25.777344 99.773438 25.054688 C 100.167969 24.335938 100.621094 23.65625 101.136719 23.015625 C 101.652344 22.378906 102.222656 21.789062 102.839844 21.25 C 103.460938 20.710938 104.125 20.234375 104.832031 19.816406 C 105.535156 19.394531 106.273438 19.042969 107.042969 18.753906 C 107.8125 18.464844 108.601562 18.25 109.40625 18.101562 C 110.214844 17.957031 111.03125 17.882812 111.851562 17.878906 L 113.820312 17.878906 C 114.34375 17.878906 114.84375 17.980469 115.324219 18.179688 C 115.808594 18.378906 116.234375 18.664062 116.601562 19.035156 C 116.972656 19.402344 117.257812 19.828125 117.457031 20.3125 C 117.65625 20.792969 117.757812 21.296875 117.757812 21.816406 L 117.757812 29.691406 L 113.820312 29.691406 L 113.820312 33.628906 L 117.757812 33.628906 L 117.757812 41.503906 L 113.820312 41.503906 C 113.433594 41.503906 113.046875 41.542969 112.667969 41.617188 C 112.289062 41.695312 111.917969 41.808594 111.5625 41.957031 C 111.203125 42.105469 110.863281 42.285156 110.539062 42.5 C 110.21875 42.71875 109.917969 42.960938 109.644531 43.238281 C 109.371094 43.511719 109.125 43.808594 108.910156 44.132812 C 108.695312 44.453125 108.511719 44.792969 108.363281 45.152344 C 108.214844 45.507812 108.105469 45.878906 108.027344 46.257812 C 107.953125 46.640625 107.914062 47.023438 107.914062 47.410156 L 107.914062 51.347656 L 111.851562 51.347656 L 111.851562 47.410156 C 111.851562 47.148438 111.902344 46.898438 112 46.65625 C 112.101562 46.417969 112.242188 46.203125 112.429688 46.019531 C 112.613281 45.835938 112.824219 45.691406 113.066406 45.59375 C 113.308594 45.492188 113.558594 45.441406 113.820312 45.441406 L 117.757812 45.441406 L 117.757812 53.316406 C 117.757812 53.839844 117.65625 54.339844 117.457031 54.824219 C 117.257812 55.304688 116.972656 55.730469 116.601562 56.101562 C 116.234375 56.46875 115.808594 56.753906 115.324219 56.953125 C 114.84375 57.152344 114.34375 57.253906 113.820312 57.253906 Z M 113.820312 57.253906 "/><g style="fill:#363636;fill-opacity:1;"><g transform="translate(165.775658, 44.624995)"><path style="stroke:none" d="M 10.4375 -2.59375 L 4.953125 -2.59375 L 4.078125 0 L 0.328125 0 L 5.640625 -14.671875 L 9.78125 -14.671875 L 15.09375 0 L 11.3125 0 Z M 9.515625 -5.359375 L 7.6875 -10.71875 L 5.890625 -5.359375 Z M 9.515625 -5.359375 "/></g></g><g style="fill:#363636;fill-opacity:1;"><g transform="translate(181.174965, 44.624995)"><path style="stroke:none" d="M 4.875 -14.671875 L 4.875 0 L 1.296875 0 L 1.296875 -14.671875 Z M 4.875 -14.671875 "/></g></g><g style="fill:#363636;fill-opacity:1;"><g transform="translate(187.338866, 44.624995)"><path style="stroke:none" d=""/></g></g><g style="fill:#363636;fill-opacity:1;"><g transform="translate(191.768519, 44.624995)"><path style="stroke:none" d="M 4.875 -14.671875 L 4.875 0 L 1.296875 0 L 1.296875 -14.671875 Z M 4.875 -14.671875 "/></g></g><g style="fill:#363636;fill-opacity:1;"><g transform="translate(197.932421, 44.624995)"><path style="stroke:none" d="M 8.40625 -11.796875 C 9.769531 -11.796875 10.859375 -11.351562 11.671875 -10.46875 C 12.492188 -9.582031 12.90625 -8.363281 12.90625 -6.8125 L 12.90625 0 L 9.34375 0 L 9.34375 -6.328125 C 9.34375 -7.109375 9.140625 -7.710938 8.734375 -8.140625 C 8.328125 -8.578125 7.785156 -8.796875 7.109375 -8.796875 C 6.421875 -8.796875 5.875 -8.578125 5.46875 -8.140625 C 5.070312 -7.710938 4.875 -7.109375 4.875 -6.328125 L 4.875 0 L 1.296875 0 L 1.296875 -11.671875 L 4.875 -11.671875 L 4.875 -10.125 C 5.238281 -10.632812 5.722656 -11.039062 6.328125 -11.34375 C 6.941406 -11.644531 7.632812 -11.796875 8.40625 -11.796875 Z M 8.40625 -11.796875 "/></g></g><g style="fill:#363636;fill-opacity:1;"><g transform="translate(212.01537, 44.624995)"><path style="stroke:none" d="M 7.796875 -3.03125 L 7.796875 0 L 5.984375 0 C 4.679688 0 3.664062 -0.316406 2.9375 -0.953125 C 2.21875 -1.585938 1.859375 -2.625 1.859375 -4.0625 L 1.859375 -8.703125 L 0.4375 -8.703125 L 0.4375 -11.671875 L 1.859375 -11.671875 L 1.859375 -14.515625 L 5.4375 -14.515625 L 5.4375 -11.671875 L 7.78125 -11.671875 L 7.78125 -8.703125 L 5.4375 -8.703125 L 5.4375 -4.015625 C 5.4375 -3.660156 5.519531 -3.40625 5.6875 -3.25 C 5.851562 -3.101562 6.128906 -3.03125 6.515625 -3.03125 Z M 7.796875 -3.03125 "/></g></g><g style="fill:#363636;fill-opacity:1;"><g transform="translate(220.498577, 44.624995)"><path style="stroke:none" d="M 12.296875 -6.015625 C 12.296875 -5.679688 12.273438 -5.332031 12.234375 -4.96875 L 4.140625 -4.96875 C 4.191406 -4.25 4.421875 -3.695312 4.828125 -3.3125 C 5.242188 -2.925781 5.753906 -2.734375 6.359375 -2.734375 C 7.242188 -2.734375 7.863281 -3.113281 8.21875 -3.875 L 12.015625 -3.875 C 11.828125 -3.101562 11.476562 -2.410156 10.96875 -1.796875 C 10.457031 -1.179688 9.816406 -0.695312 9.046875 -0.34375 C 8.285156 0 7.429688 0.171875 6.484375 0.171875 C 5.335938 0.171875 4.316406 -0.0703125 3.421875 -0.5625 C 2.535156 -1.050781 1.835938 -1.75 1.328125 -2.65625 C 0.828125 -3.5625 0.578125 -4.617188 0.578125 -5.828125 C 0.578125 -7.046875 0.820312 -8.109375 1.3125 -9.015625 C 1.8125 -9.921875 2.507812 -10.613281 3.40625 -11.09375 C 4.300781 -11.582031 5.328125 -11.828125 6.484375 -11.828125 C 7.609375 -11.828125 8.609375 -11.585938 9.484375 -11.109375 C 10.367188 -10.640625 11.054688 -9.96875 11.546875 -9.09375 C 12.046875 -8.21875 12.296875 -7.191406 12.296875 -6.015625 Z M 8.640625 -6.96875 C 8.640625 -7.570312 8.425781 -8.054688 8 -8.421875 C 7.582031 -8.785156 7.0625 -8.96875 6.4375 -8.96875 C 5.84375 -8.96875 5.335938 -8.789062 4.921875 -8.4375 C 4.515625 -8.09375 4.257812 -7.601562 4.15625 -6.96875 Z M 8.640625 -6.96875 "/></g></g><g style="fill:#363636;fill-opacity:1;"><g transform="translate(233.369643, 44.624995)"><path style="stroke:none" d="M 5.734375 -11.828125 C 6.554688 -11.828125 7.273438 -11.660156 7.890625 -11.328125 C 8.515625 -10.992188 8.992188 -10.554688 9.328125 -10.015625 L 9.328125 -11.671875 L 12.90625 -11.671875 L 12.90625 -0.015625 C 12.90625 1.054688 12.691406 2.023438 12.265625 2.890625 C 11.835938 3.765625 11.1875 4.457031 10.3125 4.96875 C 9.445312 5.488281 8.363281 5.75 7.0625 5.75 C 5.332031 5.75 3.929688 5.335938 2.859375 4.515625 C 1.785156 3.703125 1.175781 2.601562 1.03125 1.21875 L 4.5625 1.21875 C 4.664062 1.65625 4.925781 2.003906 5.34375 2.265625 C 5.769531 2.523438 6.289062 2.65625 6.90625 2.65625 C 7.632812 2.65625 8.21875 2.441406 8.65625 2.015625 C 9.101562 1.585938 9.328125 0.910156 9.328125 -0.015625 L 9.328125 -1.671875 C 8.972656 -1.128906 8.488281 -0.6875 7.875 -0.34375 C 7.269531 0 6.554688 0.171875 5.734375 0.171875 C 4.765625 0.171875 3.890625 -0.0703125 3.109375 -0.5625 C 2.328125 -1.0625 1.707031 -1.769531 1.25 -2.6875 C 0.800781 -3.601562 0.578125 -4.660156 0.578125 -5.859375 C 0.578125 -7.054688 0.800781 -8.109375 1.25 -9.015625 C 1.707031 -9.921875 2.328125 -10.613281 3.109375 -11.09375 C 3.890625 -11.582031 4.765625 -11.828125 5.734375 -11.828125 Z M 9.328125 -5.828125 C 9.328125 -6.722656 9.078125 -7.425781 8.578125 -7.9375 C 8.085938 -8.457031 7.488281 -8.71875 6.78125 -8.71875 C 6.0625 -8.71875 5.453125 -8.460938 4.953125 -7.953125 C 4.460938 -7.441406 4.21875 -6.742188 4.21875 -5.859375 C 4.21875 -4.960938 4.460938 -4.253906 4.953125 -3.734375 C 5.453125 -3.210938 6.0625 -2.953125 6.78125 -2.953125 C 7.488281 -2.953125 8.085938 -3.207031 8.578125 -3.71875 C 9.078125 -4.238281 9.328125 -4.941406 9.328125 -5.828125 Z M 9.328125 -5.828125 "/></g></g><g style="fill:#363636;fill-opacity:1;"><g transform="translate(247.557066, 44.624995)"><path style="stroke:none" d="M 4.875 -9.71875 C 5.289062 -10.363281 5.8125 -10.867188 6.4375 -11.234375 C 7.0625 -11.609375 7.757812 -11.796875 8.53125 -11.796875 L 8.53125 -8 L 7.546875 -8 C 6.648438 -8 5.976562 -7.804688 5.53125 -7.421875 C 5.09375 -7.046875 4.875 -6.378906 4.875 -5.421875 L 4.875 0 L 1.296875 0 L 1.296875 -11.671875 L 4.875 -11.671875 Z M 4.875 -9.71875 "/></g></g><g style="fill:#363636;fill-opacity:1;"><g transform="translate(256.499948, 44.624995)"><path style="stroke:none" d="M 0.578125 -5.859375 C 0.578125 -7.054688 0.800781 -8.109375 1.25 -9.015625 C 1.707031 -9.921875 2.328125 -10.613281 3.109375 -11.09375 C 3.890625 -11.582031 4.765625 -11.828125 5.734375 -11.828125 C 6.554688 -11.828125 7.273438 -11.660156 7.890625 -11.328125 C 8.515625 -10.992188 8.992188 -10.554688 9.328125 -10.015625 L 9.328125 -11.671875 L 12.90625 -11.671875 L 12.90625 0 L 9.328125 0 L 9.328125 -1.65625 C 8.972656 -1.113281 8.484375 -0.671875 7.859375 -0.328125 C 7.242188 0.00390625 6.523438 0.171875 5.703125 0.171875 C 4.753906 0.171875 3.890625 -0.0703125 3.109375 -0.5625 C 2.328125 -1.0625 1.707031 -1.769531 1.25 -2.6875 C 0.800781 -3.601562 0.578125 -4.660156 0.578125 -5.859375 Z M 9.328125 -5.828125 C 9.328125 -6.722656 9.078125 -7.425781 8.578125 -7.9375 C 8.085938 -8.457031 7.488281 -8.71875 6.78125 -8.71875 C 6.0625 -8.71875 5.453125 -8.460938 4.953125 -7.953125 C 4.460938 -7.441406 4.21875 -6.742188 4.21875 -5.859375 C 4.21875 -4.960938 4.460938 -4.253906 4.953125 -3.734375 C 5.453125 -3.210938 6.0625 -2.953125 6.78125 -2.953125 C 7.488281 -2.953125 8.085938 -3.207031 8.578125 -3.71875 C 9.078125 -4.238281 9.328125 -4.941406 9.328125 -5.828125 Z M 9.328125 -5.828125 "/></g></g><g style="fill:#363636;fill-opacity:1;"><g transform="translate(270.68737, 44.624995)"><path style="stroke:none" d="M 7.796875 -3.03125 L 7.796875 0 L 5.984375 0 C 4.679688 0 3.664062 -0.316406 2.9375 -0.953125 C 2.21875 -1.585938 1.859375 -2.625 1.859375 -4.0625 L 1.859375 -8.703125 L 0.4375 -8.703125 L 0.4375 -11.671875 L 1.859375 -11.671875 L 1.859375 -14.515625 L 5.4375 -14.515625 L 5.4375 -11.671875 L 7.78125 -11.671875 L 7.78125 -8.703125 L 5.4375 -8.703125 L 5.4375 -4.015625 C 5.4375 -3.660156 5.519531 -3.40625 5.6875 -3.25 C 5.851562 -3.101562 6.128906 -3.03125 6.515625 -3.03125 Z M 7.796875 -3.03125 "/></g></g><g style="fill:#363636;fill-opacity:1;"><g transform="translate(279.170577, 44.624995)"><path style="stroke:none" d="M 3.09375 -12.875 C 2.46875 -12.875 1.957031 -13.054688 1.5625 -13.421875 C 1.164062 -13.796875 0.96875 -14.253906 0.96875 -14.796875 C 0.96875 -15.359375 1.164062 -15.820312 1.5625 -16.1875 C 1.957031 -16.5625 2.46875 -16.75 3.09375 -16.75 C 3.707031 -16.75 4.210938 -16.5625 4.609375 -16.1875 C 5.003906 -15.820312 5.203125 -15.359375 5.203125 -14.796875 C 5.203125 -14.253906 5.003906 -13.796875 4.609375 -13.421875 C 4.210938 -13.054688 3.707031 -12.875 3.09375 -12.875 Z M 4.875 -11.671875 L 4.875 0 L 1.296875 0 L 1.296875 -11.671875 Z M 4.875 -11.671875 "/></g></g><g style="fill:#363636;fill-opacity:1;"><g transform="translate(285.334479, 44.624995)"><path style="stroke:none" d="M 6.609375 0.171875 C 5.460938 0.171875 4.429688 -0.0703125 3.515625 -0.5625 C 2.609375 -1.050781 1.890625 -1.75 1.359375 -2.65625 C 0.835938 -3.5625 0.578125 -4.617188 0.578125 -5.828125 C 0.578125 -7.023438 0.84375 -8.082031 1.375 -9 C 1.90625 -9.914062 2.628906 -10.613281 3.546875 -11.09375 C 4.472656 -11.582031 5.503906 -11.828125 6.640625 -11.828125 C 7.785156 -11.828125 8.816406 -11.582031 9.734375 -11.09375 C 10.660156 -10.613281 11.390625 -9.914062 11.921875 -9 C 12.453125 -8.082031 12.71875 -7.023438 12.71875 -5.828125 C 12.71875 -4.628906 12.445312 -3.570312 11.90625 -2.65625 C 11.363281 -1.75 10.628906 -1.050781 9.703125 -0.5625 C 8.785156 -0.0703125 7.753906 0.171875 6.609375 0.171875 Z M 6.609375 -2.921875 C 7.285156 -2.921875 7.863281 -3.171875 8.34375 -3.671875 C 8.832031 -4.179688 9.078125 -4.898438 9.078125 -5.828125 C 9.078125 -6.765625 8.84375 -7.484375 8.375 -7.984375 C 7.90625 -8.484375 7.328125 -8.734375 6.640625 -8.734375 C 5.953125 -8.734375 5.375 -8.484375 4.90625 -7.984375 C 4.445312 -7.492188 4.21875 -6.773438 4.21875 -5.828125 C 4.21875 -4.898438 4.441406 -4.179688 4.890625 -3.671875 C 5.347656 -3.171875 5.921875 -2.921875 6.609375 -2.921875 Z M 6.609375 -2.921875 "/></g></g><g style="fill:#363636;fill-opacity:1;"><g transform="translate(298.644334, 44.624995)"><path style="stroke:none" d="M 8.40625 -11.796875 C 9.769531 -11.796875 10.859375 -11.351562 11.671875 -10.46875 C 12.492188 -9.582031 12.90625 -8.363281 12.90625 -6.8125 L 12.90625 0 L 9.34375 0 L 9.34375 -6.328125 C 9.34375 -7.109375 9.140625 -7.710938 8.734375 -8.140625 C 8.328125 -8.578125 7.785156 -8.796875 7.109375 -8.796875 C 6.421875 -8.796875 5.875 -8.578125 5.46875 -8.140625 C 5.070312 -7.710938 4.875 -7.109375 4.875 -6.328125 L 4.875 0 L 1.296875 0 L 1.296875 -11.671875 L 4.875 -11.671875 L 4.875 -10.125 C 5.238281 -10.632812 5.722656 -11.039062 6.328125 -11.34375 C 6.941406 -11.644531 7.632812 -11.796875 8.40625 -11.796875 Z M 8.40625 -11.796875 "/></g></g></g></svg>